<?xml version="1.0" encoding="UTF-8" standalone="no" ?>
<svg xmlns="http://www.w3.org/2000/svg" width="19.736px" height="15.416px" viewBox="0 -694 1090.3 851.8" xmlns:xlink="http://www.w3.org/1999/xlink"><defs><path id="MJX-14-NCM-I-1D706" d="M86-13C97-13 109-6 122 9L355 285C390 189 416 117 433 68C444 37 451 19 456 12C467-3 486-11 512-11L533-11C543-10 548-6 548 3C548 5 546 9 542 14C535 21 528 36 520 59L319 621C302 670 261 694 196 694C181 694 174 689 174 679C174 672 180 667 191 664C205 660 214 655 219 649C226 641 236 621 247 589L342 322L72 53C59 40 53 29 53 20C53 2 68-13 86-13Z"/><path id="MJX-14-NCM-I-1D45B" d="M537 137C514 58 481 18 440 18C427 18 420 28 420 47C420 61 426 84 438 115C478 224 498 296 498 333C498 403 451 442 381 442C322 442 271 416 230 363C222 407 187 442 136 442C80 442 58 390 44 345C34 313 29 294 29 287C29 278 34 273 45 273C50 273 53 274 56 276C61 285 64 292 65 299C83 375 106 413 133 413C151 413 160 399 160 371C160 358 155 331 144 290L87 63C84 50 78 24 78 19C78-1 89-11 111-11C130-11 144-1 151 19C153 24 159 49 170 92L191 181L221 295C232 318 249 341 270 365C299 397 335 413 378 413C411 413 427 391 427 348C427 310 406 234 363 120C356 102 353 87 353 74C353 25 390-11 438-11C482-11 517 14 542 64C561 104 571 131 571 144C571 153 566 158 555 158C552 158 537 149 537 137Z"/></defs><g stroke="#000000" fill="#000000" stroke-width="0" transform="scale(1,-1)"><g data-mml-node="math" data-latex="\lambda_n" data-semantic-structure="(2 0 1)"><g data-mml-node="msub" data-latex="\lambda_n" data-semantic-type="subscript" data-semantic-role="greekletter" data-semantic-annotation="depth:1" data-semantic-id="2" data-semantic-children="0,1" data-semantic-attributes="latex:\lambda_n" data-semantic-owns="0 1" aria-level="0" data-speech-node="true"><g data-mml-node="mi" data-latex="\lambda" data-semantic-type="identifier" data-semantic-role="greekletter" data-semantic-font="italic" data-semantic-annotation="clearspeak:simple;nemeth:number;depth:2" data-semantic-id="0" data-semantic-parent="2" data-semantic-attributes="latex:\lambda" aria-level="1" data-speech-node="true"><use data-c="1D706" xlink:href="#MJX-14-NCM-I-1D706" xmlns:xlink="http://www.w3.org/1999/xlink"/></g><g data-mml-node="mi" transform="translate(616,-150) scale(0.707)" data-latex="n" data-semantic-type="identifier" data-semantic-role="latinletter" data-semantic-font="italic" data-semantic-annotation="clearspeak:simple;depth:2" data-semantic-id="1" data-semantic-parent="2" data-semantic-attributes="latex:n" aria-level="1" data-speech-node="true"><use data-c="1D45B" xlink:href="#MJX-14-NCM-I-1D45B" xmlns:xlink="http://www.w3.org/1999/xlink"/></g></g></g></g></svg>