<?xml version="1.0" encoding="UTF-8" standalone="no" ?>
<svg xmlns="http://www.w3.org/2000/svg" width="51.760px" height="18.096px" viewBox="0 -750 2859.6 1000" xmlns:xlink="http://www.w3.org/1999/xlink"><defs><path id="MJX-7-NCM-I-1D438" d="M199 656C199 646 210 641 231 641C271 641 291 637 291 628C291 625 289 618 286 605L156 82C151 60 141 47 126 42C119 40 101 39 70 39C48 39 38 37 38 16C38 5 49 0 70 0L583 0C607 0 609 2 617 19L657 109C684 171 703 217 714 248C712 257 709 263 698 263C691 263 685 258 681 249C656 190 632 145 608 113C568 59 509 39 415 39L270 39C260 39 253 39 249 40C243 40 240 42 240 45C240 47 242 54 245 67L311 334L406 334C453 334 478 328 483 315C485 310 486 303 486 293C486 280 484 264 479 245C477 240 476 236 476 233C476 223 482 218 493 218C502 218 508 226 512 241L568 473C568 483 563 488 552 488C544 488 538 481 535 467C525 428 512 403 495 391C478 379 450 373 409 373L321 373L379 606C387 640 387 641 429 641L568 641C619 641 654 636 673 626C701 611 715 581 715 536C715 519 714 501 711 484C711 482 711 479 710 475L710 466C710 455 715 450 725 450C735 450 741 459 743 478L763 649C766 677 759 680 732 680L233 680C210 680 199 679 199 656Z"/><path id="MJX-7-NCM-I-1D464" d="M590 391C590 382 595 372 606 362C629 340 641 313 641 281C641 264 635 237 623 198C586 78 539 18 482 18C435 18 412 45 412 100C412 119 416 142 423 171C441 243 460 314 477 387C479 394 480 398 480 401C480 421 469 431 447 431C427 431 414 421 407 401L367 245C352 187 341 167 341 115C341 107 341 101 342 98C319 45 290 18 255 18C205 18 180 47 180 104C180 141 197 204 231 293C242 323 248 344 248 357C248 406 212 442 163 442C118 442 84 417 59 367C39 328 29 301 29 287C29 278 34 273 45 273C58 273 60 279 64 293C88 373 120 413 160 413C174 413 181 403 181 384C181 369 175 347 164 317C127 220 108 154 108 117C108 32 165-11 252-11C294-11 328 10 355 53C375 10 416-11 479-11C541-11 590 30 625 112C648 164 691 302 691 369C691 384 690 394 689 399C685 418 666 442 644 442C618 442 590 417 590 391Z"/><path id="MJX-7-NCM-N-2061" d=""/><path id="MJX-7-NCM-N-5B" d="M233-202L159-202L159 702L233 702C248 702 256 710 256 726C256 742 248 750 233 750L114 750L114-250L233-250C248-250 256-242 256-226C256-214 245-202 233-202Z"/><path id="MJX-7-NCM-I-1D703" d="M164-11C209-11 256 16 302 70C382 163 455 335 455 498C455 539 448 582 434 625C416 678 382 705 333 705C288 705 243 678 196 624C116 532 42 360 42 196C42 94 75-11 164-11M332 675C365 675 382 637 382 560C382 517 372 452 352 367L155 367C180 460 204 529 229 574C266 641 301 675 332 675M145 327L341 327C322 246 299 181 274 132C235 57 199 19 164 19C131 19 115 58 115 135C115 185 125 249 145 327Z"/><path id="MJX-7-NCM-I-1D45B" d="M537 137C514 58 481 18 440 18C427 18 420 28 420 47C420 61 426 84 438 115C478 224 498 296 498 333C498 403 451 442 381 442C322 442 271 416 230 363C222 407 187 442 136 442C80 442 58 390 44 345C34 313 29 294 29 287C29 278 34 273 45 273C50 273 53 274 56 276C61 285 64 292 65 299C83 375 106 413 133 413C151 413 160 399 160 371C160 358 155 331 144 290L87 63C84 50 78 24 78 19C78-1 89-11 111-11C130-11 144-1 151 19C153 24 159 49 170 92L191 181L221 295C232 318 249 341 270 365C299 397 335 413 378 413C411 413 427 391 427 348C427 310 406 234 363 120C356 102 353 87 353 74C353 25 390-11 438-11C482-11 517 14 542 64C561 104 571 131 571 144C571 153 566 158 555 158C552 158 537 149 537 137Z"/><path id="MJX-7-NCM-N-5D" d="M45-250L164-250L164 750L45 750C30 750 22 742 22 726C22 710 30 702 45 702L119 702L119-202L45-202C30-202 22-210 22-226C22-242 30-250 45-250Z"/></defs><g stroke="#000000" fill="#000000" stroke-width="0" transform="scale(1,-1)"><g data-mml-node="math" data-latex="E_w[\theta^n]" data-semantic-type="appl" data-semantic-role="simple function" data-semantic-annotation="depth:1" data-semantic-id="10" data-semantic-children="2,8" data-semantic-content="9,0" data-semantic-attributes="latex:E_w[\theta^n]" data-semantic-owns="2 9 8" aria-level="0" data-speech-node="true" data-semantic-structure="(10 (2 0 1) 9 (8 3 (6 4 5) 7))"><g data-mml-node="msub" data-latex="E_w" data-semantic-type="subscript" data-semantic-role="simple function" data-semantic-annotation="depth:2" data-semantic-id="2" data-semantic-children="0,1" data-semantic-parent="10" data-semantic-attributes="latex:E_w" data-semantic-owns="0 1" aria-level="1" data-speech-node="true"><g data-mml-node="mi" data-latex="E" data-semantic-type="identifier" data-semantic-role="simple function" data-semantic-font="italic" data-semantic-annotation="clearspeak:simple;nemeth:number;depth:3" data-semantic-id="0" data-semantic-parent="2" data-semantic-attributes="latex:E" data-semantic-operator="appl" aria-level="2" data-speech-node="true"><use data-c="1D438" xlink:href="#MJX-7-NCM-I-1D438" xmlns:xlink="http://www.w3.org/1999/xlink"/></g><g data-mml-node="mi" transform="translate(771,-150) scale(0.707)" data-latex="w" data-semantic-type="identifier" data-semantic-role="latinletter" data-semantic-font="italic" data-semantic-annotation="clearspeak:simple;depth:3" data-semantic-id="1" data-semantic-parent="2" data-semantic-attributes="latex:w" aria-level="2" data-speech-node="true"><use data-c="1D464" xlink:href="#MJX-7-NCM-I-1D464" xmlns:xlink="http://www.w3.org/1999/xlink"/></g></g><g data-mml-node="mo" data-semantic-type="punctuation" data-semantic-role="application" data-semantic-annotation="nemeth:number;depth:2" data-semantic-id="9" data-semantic-parent="10" data-semantic-added="true" data-semantic-operator="appl" aria-level="1" data-speech-node="true" transform="translate(1327.3,0)"><use data-c="2061" xlink:href="#MJX-7-NCM-N-2061" xmlns:xlink="http://www.w3.org/1999/xlink"/></g><g data-mml-node="mrow" data-semantic-added="true" data-semantic-type="fenced" data-semantic-role="leftright" data-semantic-annotation="depth:2" data-semantic-id="8" data-semantic-children="6" data-semantic-content="3,7" data-semantic-parent="10" data-semantic-owns="3 6 7" aria-level="1" data-speech-node="true" transform="translate(1327.3,0)"><g data-mml-node="mo" data-latex="[" data-semantic-type="fence" data-semantic-role="open" data-semantic-annotation="depth:3" data-semantic-id="3" data-semantic-parent="8" data-semantic-attributes="latex:[" data-semantic-operator="fenced" aria-level="2" data-speech-node="true"><use data-c="5B" xlink:href="#MJX-7-NCM-N-5B" xmlns:xlink="http://www.w3.org/1999/xlink"/></g><g data-mml-node="msup" data-latex="\theta^n" data-semantic-type="superscript" data-semantic-role="greekletter" data-semantic-annotation="depth:3" data-semantic-id="6" data-semantic-children="4,5" data-semantic-parent="8" data-semantic-attributes="latex:\theta^n" data-semantic-owns="4 5" aria-level="2" data-speech-node="true" transform="translate(278,0)"><g data-mml-node="mi" data-latex="\theta" data-semantic-type="identifier" data-semantic-role="greekletter" data-semantic-font="italic" data-semantic-annotation="clearspeak:simple;depth:4" data-semantic-id="4" data-semantic-parent="6" data-semantic-attributes="latex:\theta" aria-level="3" data-speech-node="true"><use data-c="1D703" xlink:href="#MJX-7-NCM-I-1D703" xmlns:xlink="http://www.w3.org/1999/xlink"/></g><g data-mml-node="mi" transform="translate(502,413) scale(0.707)" data-latex="n" data-semantic-type="identifier" data-semantic-role="latinletter" data-semantic-font="italic" data-semantic-annotation="clearspeak:simple;depth:4" data-semantic-id="5" data-semantic-parent="6" data-semantic-attributes="latex:n" aria-level="3" data-speech-node="true"><use data-c="1D45B" xlink:href="#MJX-7-NCM-I-1D45B" xmlns:xlink="http://www.w3.org/1999/xlink"/></g></g><g data-mml-node="mo" data-latex="]" data-semantic-type="fence" data-semantic-role="close" data-semantic-annotation="depth:3" data-semantic-id="7" data-semantic-parent="8" data-semantic-attributes="latex:]" data-semantic-operator="fenced" aria-level="2" data-speech-node="true" transform="translate(1254.3,0)"><use data-c="5D" xlink:href="#MJX-7-NCM-N-5D" xmlns:xlink="http://www.w3.org/1999/xlink"/></g></g></g></g></svg>