<?xml version="1.0" encoding="UTF-8" standalone="no" ?>
<svg xmlns="http://www.w3.org/2000/svg" width="72.456px" height="20.520px" viewBox="0 -883.9 4003.4 1133.9" xmlns:xlink="http://www.w3.org/1999/xlink"><defs><path id="MJX-12-NCM-N-28" d="M318-248C327-248 332-243 332-234C332-231 330-227 327-223C275-183 233-117 202-26C175 53 161 131 161 208L161 292C161 369 175 447 202 526C233 617 275 683 327 723C330 726 332 730 332 734C332 743 327 748 318 748C317 748 314 747 311 745C251 699 201 631 160 540C121 453 101 371 101 292L101 208C101 129 121 47 160-40C201-131 251-199 311-245C314-247 317-248 318-248Z"/><path id="MJX-12-NCM-I-1D438" d="M199 656C199 646 210 641 231 641C271 641 291 637 291 628C291 625 289 618 286 605L156 82C151 60 141 47 126 42C119 40 101 39 70 39C48 39 38 37 38 16C38 5 49 0 70 0L583 0C607 0 609 2 617 19L657 109C684 171 703 217 714 248C712 257 709 263 698 263C691 263 685 258 681 249C656 190 632 145 608 113C568 59 509 39 415 39L270 39C260 39 253 39 249 40C243 40 240 42 240 45C240 47 242 54 245 67L311 334L406 334C453 334 478 328 483 315C485 310 486 303 486 293C486 280 484 264 479 245C477 240 476 236 476 233C476 223 482 218 493 218C502 218 508 226 512 241L568 473C568 483 563 488 552 488C544 488 538 481 535 467C525 428 512 403 495 391C478 379 450 373 409 373L321 373L379 606C387 640 387 641 429 641L568 641C619 641 654 636 673 626C701 611 715 581 715 536C715 519 714 501 711 484C711 482 711 479 710 475L710 466C710 455 715 450 725 450C735 450 741 459 743 478L763 649C766 677 759 680 732 680L233 680C210 680 199 679 199 656Z"/><path id="MJX-12-NCM-I-1D464" d="M590 391C590 382 595 372 606 362C629 340 641 313 641 281C641 264 635 237 623 198C586 78 539 18 482 18C435 18 412 45 412 100C412 119 416 142 423 171C441 243 460 314 477 387C479 394 480 398 480 401C480 421 469 431 447 431C427 431 414 421 407 401L367 245C352 187 341 167 341 115C341 107 341 101 342 98C319 45 290 18 255 18C205 18 180 47 180 104C180 141 197 204 231 293C242 323 248 344 248 357C248 406 212 442 163 442C118 442 84 417 59 367C39 328 29 301 29 287C29 278 34 273 45 273C58 273 60 279 64 293C88 373 120 413 160 413C174 413 181 403 181 384C181 369 175 347 164 317C127 220 108 154 108 117C108 32 165-11 252-11C294-11 328 10 355 53C375 10 416-11 479-11C541-11 590 30 625 112C648 164 691 302 691 369C691 384 690 394 689 399C685 418 666 442 644 442C618 442 590 417 590 391Z"/><path id="MJX-12-NCM-N-2061" d=""/><path id="MJX-12-NCM-N-5B" d="M233-202L159-202L159 702L233 702C248 702 256 710 256 726C256 742 248 750 233 750L114 750L114-250L233-250C248-250 256-242 256-226C256-214 245-202 233-202Z"/><path id="MJX-12-NCM-I-1D703" d="M164-11C209-11 256 16 302 70C382 163 455 335 455 498C455 539 448 582 434 625C416 678 382 705 333 705C288 705 243 678 196 624C116 532 42 360 42 196C42 94 75-11 164-11M332 675C365 675 382 637 382 560C382 517 372 452 352 367L155 367C180 460 204 529 229 574C266 641 301 675 332 675M145 327L341 327C322 246 299 181 274 132C235 57 199 19 164 19C131 19 115 58 115 135C115 185 125 249 145 327Z"/><path id="MJX-12-NCM-N-33" d="M303 353C369 378 431 441 431 526C431 569 410 604 369 631C333 654 292 666 246 666C201 666 162 654 127 631C88 605 68 571 68 528C68 495 90 472 122 472C154 472 176 495 176 527C176 560 157 578 119 580C145 615 186 633 242 633C302 633 332 598 332 527C332 485 324 450 309 421C282 373 245 364 183 364C171 362 165 357 165 348C165 333 172 333 192 333L235 333C310 333 348 280 348 173C348 88 317 14 241 14C176 14 128 36 99 80C134 79 160 105 160 139C160 173 135 198 101 198C62 198 42 178 42 137C42 88 64 49 108 18C147-9 193-22 244-22C301-22 350-3 393 34C436 71 457 117 457 173C457 267 383 332 303 353Z"/><path id="MJX-12-NCM-N-5D" d="M45-250L164-250L164 750L45 750C30 750 22 742 22 726C22 710 30 702 45 702L119 702L119-202L45-202C30-202 22-210 22-226C22-242 30-250 45-250Z"/><path id="MJX-12-NCM-N-29" d="M78-245C138-199 188-131 229-40C268 47 288 129 288 208L288 292C288 371 268 453 229 540C188 631 138 699 78 745C75 747 72 748 71 748C62 748 57 743 57 734C57 730 59 726 62 723C114 683 156 617 187 526C214 447 228 369 228 292L228 208C228 131 214 53 187-26C156-117 114-183 62-223C59-227 57-231 57-234C57-243 62-248 71-248C72-248 75-247 78-245Z"/><path id="MJX-12-NCM-N-32" d="M237 666C186 666 143 648 106 612C69 576 50 534 50 483C50 449 75 424 106 424C136 424 161 450 161 480C161 513 137 536 105 536C102 536 100 536 98 535C117 584 161 627 224 627C306 627 352 556 352 470C352 403 318 331 250 255L62 43C49 28 50 29 50 0L421 0L450 180L417 180C409 129 402 100 396 91C391 86 361 84 306 84L139 84L236 179C304 243 390 312 419 365C439 400 449 435 449 470C449 588 357 666 237 666Z"/></defs><g stroke="#000000" fill="#000000" stroke-width="0" transform="scale(1,-1)"><g data-mml-node="math" data-latex="(E_w[\theta^3])^2" data-semantic-structure="(11 (15 0 (14 (3 1 2) 13 (12 4 (7 5 6) 8)) 9) 10)"><g data-mml-node="msup" data-latex=")^2" data-semantic-type="superscript" data-semantic-role="leftright" data-semantic-annotation="depth:1" data-semantic-fencepointer="9" data-semantic-id="11" data-semantic-children="15,10" data-semantic-attributes="latex:(E_w[\theta^3])^2" data-semantic-owns="15 10" aria-level="0" data-speech-node="true"><g data-mml-node="mrow" data-semantic-added="true" data-semantic-type="fenced" data-semantic-role="leftright" data-semantic-annotation="depth:2" data-semantic-id="15" data-semantic-children="14" data-semantic-content="0,9" data-semantic-parent="11" data-semantic-owns="0 14 9" aria-level="1" data-speech-node="true"><g data-mml-node="mo" data-latex="(" data-semantic-type="fence" data-semantic-role="open" data-semantic-annotation="depth:3" data-semantic-id="0" data-semantic-parent="15" data-semantic-attributes="latex:(" aria-level="2" data-speech-node="true"><use data-c="28" xlink:href="#MJX-12-NCM-N-28" xmlns:xlink="http://www.w3.org/1999/xlink"/></g><g data-mml-node="mrow" data-semantic-added="true" data-semantic-type="appl" data-semantic-role="simple function" data-semantic-annotation="depth:3" data-semantic-id="14" data-semantic-children="3,12" data-semantic-content="13,1" data-semantic-parent="15" data-semantic-owns="3 13 12" aria-level="2" data-speech-node="true" transform="translate(389,0)"><g data-mml-node="msub" data-latex="E_w" data-semantic-type="subscript" data-semantic-role="simple function" data-semantic-annotation="depth:4" data-semantic-id="3" data-semantic-children="1,2" data-semantic-parent="14" data-semantic-attributes="latex:E_w" data-semantic-owns="1 2" aria-level="3" data-speech-node="true"><g data-mml-node="mi" data-latex="E" data-semantic-type="identifier" data-semantic-role="simple function" data-semantic-font="italic" data-semantic-annotation="clearspeak:simple;nemeth:number;depth:5" data-semantic-id="1" data-semantic-parent="3" data-semantic-attributes="latex:E" data-semantic-operator="appl" aria-level="4" data-speech-node="true"><use data-c="1D438" xlink:href="#MJX-12-NCM-I-1D438" xmlns:xlink="http://www.w3.org/1999/xlink"/></g><g data-mml-node="mi" transform="translate(771,-150) scale(0.707)" data-latex="w" data-semantic-type="identifier" data-semantic-role="latinletter" data-semantic-font="italic" data-semantic-annotation="clearspeak:simple;depth:5" data-semantic-id="2" data-semantic-parent="3" data-semantic-attributes="latex:w" aria-level="4" data-speech-node="true"><use data-c="1D464" xlink:href="#MJX-12-NCM-I-1D464" xmlns:xlink="http://www.w3.org/1999/xlink"/></g></g><g data-mml-node="mo" data-semantic-type="punctuation" data-semantic-role="application" data-semantic-annotation="nemeth:number;depth:4" data-semantic-id="13" data-semantic-parent="14" data-semantic-added="true" data-semantic-operator="appl" aria-level="3" data-speech-node="true" transform="translate(1327.3,0)"><use data-c="2061" xlink:href="#MJX-12-NCM-N-2061" xmlns:xlink="http://www.w3.org/1999/xlink"/></g><g data-mml-node="mrow" data-semantic-added="true" data-semantic-type="fenced" data-semantic-role="leftright" data-semantic-annotation="depth:4" data-semantic-id="12" data-semantic-children="7" data-semantic-content="4,8" data-semantic-parent="14" data-semantic-owns="4 7 8" aria-level="3" data-speech-node="true" transform="translate(1327.3,0)"><g data-mml-node="mo" data-latex="[" data-semantic-type="fence" data-semantic-role="open" data-semantic-annotation="depth:5" data-semantic-id="4" data-semantic-parent="12" data-semantic-attributes="latex:[" data-semantic-operator="fenced" aria-level="4" data-speech-node="true"><use data-c="5B" xlink:href="#MJX-12-NCM-N-5B" xmlns:xlink="http://www.w3.org/1999/xlink"/></g><g data-mml-node="msup" data-latex="\theta^3" data-semantic-type="superscript" data-semantic-role="greekletter" data-semantic-annotation="depth:5" data-semantic-id="7" data-semantic-children="5,6" data-semantic-parent="12" data-semantic-attributes="latex:\theta^3" data-semantic-owns="5 6" aria-level="4" data-speech-node="true" transform="translate(278,0)"><g data-mml-node="mi" data-latex="\theta" data-semantic-type="identifier" data-semantic-role="greekletter" data-semantic-font="italic" data-semantic-annotation="clearspeak:simple;depth:6" data-semantic-id="5" data-semantic-parent="7" data-semantic-attributes="latex:\theta" aria-level="5" data-speech-node="true"><use data-c="1D703" xlink:href="#MJX-12-NCM-I-1D703" xmlns:xlink="http://www.w3.org/1999/xlink"/></g><g data-mml-node="mn" transform="translate(502,413) scale(0.707)" data-latex="3" data-semantic-type="number" data-semantic-role="integer" data-semantic-font="normal" data-semantic-annotation="clearspeak:simple;depth:6" data-semantic-id="6" data-semantic-parent="7" data-semantic-attributes="latex:3" aria-level="5" data-speech-node="true"><use data-c="33" xlink:href="#MJX-12-NCM-N-33" xmlns:xlink="http://www.w3.org/1999/xlink"/></g></g><g data-mml-node="mo" data-latex="]" data-semantic-type="fence" data-semantic-role="close" data-semantic-annotation="depth:5" data-semantic-id="8" data-semantic-parent="12" data-semantic-attributes="latex:]" data-semantic-operator="fenced" aria-level="4" data-speech-node="true" transform="translate(1183.6,0)"><use data-c="5D" xlink:href="#MJX-12-NCM-N-5D" xmlns:xlink="http://www.w3.org/1999/xlink"/></g></g></g><g data-mml-node="mo" data-latex=")" data-semantic-type="fence" data-semantic-role="close" data-semantic-annotation="depth:3" data-semantic-id="9" data-semantic-parent="15" data-semantic-attributes="latex:)" aria-level="2" data-speech-node="true" transform="translate(3177.8,0)"><use data-c="29" xlink:href="#MJX-12-NCM-N-29" xmlns:xlink="http://www.w3.org/1999/xlink"/></g></g><g data-mml-node="mn" transform="translate(3599.8,413) scale(0.707)" data-latex="2" data-semantic-type="number" data-semantic-role="integer" data-semantic-font="normal" data-semantic-annotation="clearspeak:simple;depth:2" data-semantic-id="10" data-semantic-parent="11" data-semantic-attributes="latex:2" aria-level="1" data-speech-node="true"><use data-c="32" xlink:href="#MJX-12-NCM-N-32" xmlns:xlink="http://www.w3.org/1999/xlink"/></g></g></g></g></svg>